# xmcd
#
# Track frame offsets: 
#        150
#        29622
#        64532
#        94733
#        110653
#        151432
#        185734
#        218118
#
# Disc length: 3444 seconds
#
# Revision: 1
# Processed by: cddbd v1.5.2PL0 Copyright (c) Steve Scherf et al.
# Submitted via: ExactAudioCopy v0.95b4
#
DISCID=6f0d7208
DTITLE=Degen - Wuchner - Stefanski - Live recorded 2008
DYEAR=2008
DGENRE=Jazz
TTITLE0=The Bayswater Hotel
TTITLE1=The Birdwatcher
TTITLE2=Shortcut
TTITLE3=Lichtwiesenlied
TTITLE4=The Dive
TTITLE5=Mercy 4 The Sparrows
TTITLE6=Last But Not Least
TTITLE7=Piece For AHC
EXTD=YEAR: 2008
EXTT0=
EXTT1=
EXTT2=
EXTT3=
EXTT4=
EXTT5=
EXTT6=
EXTT7=
PLAYORDER=
